<?xml version="1.0" encoding="UTF-8" standalone="no"?>
<!-- Created with Inkscape (http://www.inkscape.org/) -->

<svg
   xmlns:dc="http://purl.org/dc/elements/1.1/"
   xmlns:cc="http://creativecommons.org/ns#"
   xmlns:rdf="http://www.w3.org/1999/02/22-rdf-syntax-ns#"
   xmlns:svg="http://www.w3.org/2000/svg"
   xmlns="http://www.w3.org/2000/svg"
   xmlns:sodipodi="http://sodipodi.sourceforge.net/DTD/sodipodi-0.dtd"
   xmlns:inkscape="http://www.inkscape.org/namespaces/inkscape"
   id="svg4526"
   version="1.1"
   inkscape:version="0.91 r13725"
   xml:space="preserve"
   width="661.58752"
   height="674.33752"
   viewBox="0 0 661.58752 674.33752"
   sodipodi:docname="RegulatedCascodeBias.voltages.svg"
   inkscape:export-filename="/home/cmaier/Telluride/2021/tac/sky130_TAC3/simulation/RegulatedCascodeBias.voltages.png"
   inkscape:export-xdpi="179"
   inkscape:export-ydpi="179"><metadata
     id="metadata4532"><rdf:RDF><cc:Work
         rdf:about=""><dc:format>image/svg+xml</dc:format><dc:type
           rdf:resource="http://purl.org/dc/dcmitype/StillImage" /><dc:title></dc:title></cc:Work></rdf:RDF></metadata><defs
     id="defs4530" /><sodipodi:namedview
     pagecolor="#ffffff"
     bordercolor="#666666"
     borderopacity="1"
     objecttolerance="10"
     gridtolerance="10"
     guidetolerance="10"
     inkscape:pageopacity="0"
     inkscape:pageshadow="2"
     inkscape:window-width="1335"
     inkscape:window-height="922"
     id="namedview4528"
     showgrid="false"
     inkscape:zoom="1.0332203"
     inkscape:cx="317.175"
     inkscape:cy="316.475"
     inkscape:window-x="2049"
     inkscape:window-y="48"
     inkscape:window-maximized="0"
     inkscape:current-layer="g4534"
     fit-margin-top="0"
     fit-margin-left="0"
     fit-margin-right="0"
     fit-margin-bottom="0" /><g
     id="g4534"
     inkscape:groupmode="layer"
     inkscape:label="ink_ext_XXXXXX"
     transform="matrix(1.25,0,0,-1.25,-67.825,754.1125)"><g
       id="g4540"><text
         id="text4542"
         style="font-variant:normal;font-weight:normal;font-size:10px;font-family:Helvetica;-inkscape-font-specification:Helvetica;writing-mode:lr-tb;fill:#000000;fill-opacity:1;fill-rule:nonzero;stroke:none"
         transform="matrix(1,0,0,-1,243,66)"><tspan
           id="tspan4544"
           sodipodi:role="line"
           y="0"
           x="0">pressure [kPa]</tspan><tspan
           id="tspan4546"
           sodipodi:role="line"
           y="-530"
           x="-189 -183.44 -178.44 -172.88 -170.10001 -167.32001 -163.42999 -159.53999 -156.75999 -151.75999 -146.2 -140.64 -135.64 -130.64 -127.86 -125.08 -121.75 -116.19 -110.63 -105.07 -102.85 -97.290001 -94.510002 -88.949997 -83.389999 -78.389999 -72.830002 -67.830002 -62.830002 -57.27 -51.709999 -46.150002 -40.59 -38.369999 -32.810001">dc1: **.subckt regulatedcascodebias</tspan></text>
</g><path
       inkscape:connector-curvature="0"
       id="path4548"
       style="fill:none;stroke:#000000;stroke-width:1;stroke-linecap:butt;stroke-linejoin:miter;stroke-miterlimit:10;stroke-dasharray:none;stroke-opacity:1"
       d="m 78,104 0,444" /><g
       id="g4550"><text
         id="text4552"
         style="font-variant:normal;font-weight:normal;font-size:10px;font-family:Helvetica;-inkscape-font-specification:Helvetica;writing-mode:lr-tb;fill:#000000;fill-opacity:1;fill-rule:nonzero;stroke:none"
         transform="matrix(1,0,0,-1,69,87)"><tspan
           id="tspan4554"
           sodipodi:role="line"
           y="0"
           x="0 5.5599999 8.3400002">0.0</tspan></text>
</g><path
       inkscape:connector-curvature="0"
       id="path4556"
       style="fill:none;stroke:#606060;stroke-width:1;stroke-linecap:butt;stroke-linejoin:miter;stroke-miterlimit:10;stroke-dasharray:none;stroke-opacity:1"
       d="m 202,104 0,444" /><g
       id="g4558"><text
         id="text4560"
         style="font-variant:normal;font-weight:normal;font-size:10px;font-family:Helvetica;-inkscape-font-specification:Helvetica;writing-mode:lr-tb;fill:#000000;fill-opacity:1;fill-rule:nonzero;stroke:none"
         transform="matrix(1,0,0,-1,190,87)"><tspan
           id="tspan4562"
           sodipodi:role="line"
           y="0"
           x="0 5.5599999 11.12 13.9">50.0</tspan></text>
</g><path
       inkscape:connector-curvature="0"
       id="path4564"
       style="fill:none;stroke:#606060;stroke-width:1;stroke-linecap:butt;stroke-linejoin:miter;stroke-miterlimit:10;stroke-dasharray:none;stroke-opacity:1"
       d="m 326,104 0,444" /><g
       id="g4566"><text
         id="text4568"
         style="font-variant:normal;font-weight:normal;font-size:10px;font-family:Helvetica;-inkscape-font-specification:Helvetica;writing-mode:lr-tb;fill:#000000;fill-opacity:1;fill-rule:nonzero;stroke:none"
         transform="matrix(1,0,0,-1,311,87)"><tspan
           id="tspan4570"
           sodipodi:role="line"
           y="0"
           x="0 5.5599999 11.12 16.68 19.459999">100.0</tspan></text>
</g><path
       inkscape:connector-curvature="0"
       id="path4572"
       style="fill:none;stroke:#606060;stroke-width:1;stroke-linecap:butt;stroke-linejoin:miter;stroke-miterlimit:10;stroke-dasharray:none;stroke-opacity:1"
       d="m 450,104 0,444" /><g
       id="g4574"><text
         id="text4576"
         style="font-variant:normal;font-weight:normal;font-size:10px;font-family:Helvetica;-inkscape-font-specification:Helvetica;writing-mode:lr-tb;fill:#000000;fill-opacity:1;fill-rule:nonzero;stroke:none"
         transform="matrix(1,0,0,-1,435,87)"><tspan
           id="tspan4578"
           sodipodi:role="line"
           y="0"
           x="0 5.5599999 11.12 16.68 19.459999">150.0</tspan></text>
</g><path
       inkscape:connector-curvature="0"
       id="path4580"
       style="fill:none;stroke:#606060;stroke-width:1;stroke-linecap:butt;stroke-linejoin:miter;stroke-miterlimit:10;stroke-dasharray:none;stroke-opacity:1"
       d="m 574,104 0,444" /><g
       id="g4582"><text
         id="text4584"
         style="font-variant:normal;font-weight:normal;font-size:10px;font-family:Helvetica;-inkscape-font-specification:Helvetica;writing-mode:lr-tb;fill:#000000;fill-opacity:1;fill-rule:nonzero;stroke:none"
         transform="matrix(1,0,0,-1,559,87)"><tspan
           id="tspan4586"
           sodipodi:role="line"
           y="0"
           x="0 5.5599999 11.12 16.68 19.459999">200.0</tspan><tspan
           id="tspan4588"
           y="21"
           x="-177" /></text>
</g><path
       inkscape:connector-curvature="0"
       id="path4590"
       style="fill:none;stroke:#606060;stroke-width:1;stroke-linecap:butt;stroke-linejoin:miter;stroke-miterlimit:10;stroke-dasharray:none;stroke-opacity:1"
       d="m 78,104 496,0" /><g
       id="g4592"><text
         id="text4594"
         style="font-variant:normal;font-weight:normal;font-size:10px;font-family:Helvetica;-inkscape-font-specification:Helvetica;writing-mode:lr-tb;fill:#000000;fill-opacity:1;fill-rule:nonzero;stroke:none"
         transform="matrix(1,0,0,-1,58,101)"><tspan
           id="tspan4596"
           sodipodi:role="line"
           y="0"
           x="0 5.5599999 8.3400002">0.4</tspan></text>
</g><path
       inkscape:connector-curvature="0"
       id="path4598"
       style="fill:none;stroke:#606060;stroke-width:1;stroke-linecap:butt;stroke-linejoin:miter;stroke-miterlimit:10;stroke-dasharray:none;stroke-opacity:1"
       d="m 78,178 496,0" /><g
       id="g4600"><text
         id="text4602"
         style="font-variant:normal;font-weight:normal;font-size:10px;font-family:Helvetica;-inkscape-font-specification:Helvetica;writing-mode:lr-tb;fill:#000000;fill-opacity:1;fill-rule:nonzero;stroke:none"
         transform="matrix(1,0,0,-1,58,175)"><tspan
           id="tspan4604"
           sodipodi:role="line"
           y="0"
           x="0 5.5599999 8.3400002">0.6</tspan></text>
</g><path
       inkscape:connector-curvature="0"
       id="path4606"
       style="fill:none;stroke:#606060;stroke-width:1;stroke-linecap:butt;stroke-linejoin:miter;stroke-miterlimit:10;stroke-dasharray:none;stroke-opacity:1"
       d="m 78,252 496,0" /><g
       id="g4608"><text
         id="text4610"
         style="font-variant:normal;font-weight:normal;font-size:10px;font-family:Helvetica;-inkscape-font-specification:Helvetica;writing-mode:lr-tb;fill:#000000;fill-opacity:1;fill-rule:nonzero;stroke:none"
         transform="matrix(1,0,0,-1,58,249)"><tspan
           id="tspan4612"
           sodipodi:role="line"
           y="0"
           x="0 5.5599999 8.3400002">0.8</tspan></text>
</g><path
       inkscape:connector-curvature="0"
       id="path4614"
       style="fill:none;stroke:#606060;stroke-width:1;stroke-linecap:butt;stroke-linejoin:miter;stroke-miterlimit:10;stroke-dasharray:none;stroke-opacity:1"
       d="m 78,326 496,0" /><g
       id="g4616"><text
         id="text4618"
         style="font-variant:normal;font-weight:normal;font-size:10px;font-family:Helvetica;-inkscape-font-specification:Helvetica;writing-mode:lr-tb;fill:#000000;fill-opacity:1;fill-rule:nonzero;stroke:none"
         transform="matrix(1,0,0,-1,58,323)"><tspan
           id="tspan4620"
           sodipodi:role="line"
           y="0"
           x="0 5.5599999 8.3400002">1.0</tspan></text>
</g><path
       inkscape:connector-curvature="0"
       id="path4622"
       style="fill:none;stroke:#606060;stroke-width:1;stroke-linecap:butt;stroke-linejoin:miter;stroke-miterlimit:10;stroke-dasharray:none;stroke-opacity:1"
       d="m 78,400 496,0" /><g
       id="g4624"><text
         id="text4626"
         style="font-variant:normal;font-weight:normal;font-size:10px;font-family:Helvetica;-inkscape-font-specification:Helvetica;writing-mode:lr-tb;fill:#000000;fill-opacity:1;fill-rule:nonzero;stroke:none"
         transform="matrix(1,0,0,-1,58,397)"><tspan
           id="tspan4628"
           sodipodi:role="line"
           y="0"
           x="0 5.5599999 8.3400002">1.2</tspan></text>
</g><path
       inkscape:connector-curvature="0"
       id="path4630"
       style="fill:none;stroke:#606060;stroke-width:1;stroke-linecap:butt;stroke-linejoin:miter;stroke-miterlimit:10;stroke-dasharray:none;stroke-opacity:1"
       d="m 78,474 496,0" /><g
       id="g4632"><text
         id="text4634"
         style="font-variant:normal;font-weight:normal;font-size:10px;font-family:Helvetica;-inkscape-font-specification:Helvetica;writing-mode:lr-tb;fill:#000000;fill-opacity:1;fill-rule:nonzero;stroke:none"
         transform="matrix(1,0,0,-1,58,471)"><tspan
           id="tspan4636"
           sodipodi:role="line"
           y="0"
           x="0 5.5599999 8.3400002">1.4</tspan></text>
</g><path
       inkscape:connector-curvature="0"
       id="path4638"
       style="fill:none;stroke:#606060;stroke-width:1;stroke-linecap:butt;stroke-linejoin:miter;stroke-miterlimit:10;stroke-dasharray:none;stroke-opacity:1"
       d="m 78,548 496,0" /><g
       id="g4640"><text
         id="text4642"
         style="font-variant:normal;font-weight:normal;font-size:10px;font-family:Helvetica;-inkscape-font-specification:Helvetica;writing-mode:lr-tb;fill:#000000;fill-opacity:1;fill-rule:nonzero;stroke:none"
         transform="matrix(1,0,0,-1,58,545)"><tspan
           id="tspan4644"
           sodipodi:role="line"
           y="0"
           x="0 5.5599999 8.3400002">1.6</tspan><tspan
           id="tspan4646"
           y="-37"
           x="-4">V</tspan></text>
</g><path
       inkscape:connector-curvature="0"
       id="path4648"
       style="fill:none;stroke:#ff0000;stroke-width:1;stroke-linecap:butt;stroke-linejoin:miter;stroke-miterlimit:10;stroke-dasharray:none;stroke-opacity:1"
       d="m 296,586 24,0" /><g
       id="g4650"><text
         id="text4652"
         style="font-variant:normal;font-weight:normal;font-size:10px;font-family:Helvetica;-inkscape-font-specification:Helvetica;writing-mode:lr-tb;fill:#000000;fill-opacity:1;fill-rule:nonzero;stroke:none"
         transform="matrix(1,0,0,-1,326,582)"><tspan
           id="tspan4654"
           sodipodi:role="line"
           y="0"
           x="0 5 10.56 16.120001">sens</tspan></text>
</g><path
       inkscape:connector-curvature="0"
       id="path4656"
       style="fill:none;stroke:#ff0000;stroke-width:1;stroke-linecap:butt;stroke-linejoin:miter;stroke-miterlimit:10;stroke-dasharray:none;stroke-opacity:1"
       d="m 80,122 494,0" /><path
       inkscape:connector-curvature="0"
       id="path4658"
       style="fill:none;stroke:#ff0000;stroke-width:1;stroke-linecap:butt;stroke-linejoin:miter;stroke-miterlimit:10;stroke-dasharray:none;stroke-opacity:1"
       d="m 80,122 494,0" /><path
       inkscape:connector-curvature="0"
       id="path4660"
       style="fill:none;stroke:#ff0000;stroke-width:1;stroke-linecap:butt;stroke-linejoin:miter;stroke-miterlimit:10;stroke-dasharray:none;stroke-opacity:1"
       d="m 80,122 494,0" /><path
       inkscape:connector-curvature="0"
       id="path4662"
       style="fill:none;stroke:#ff0000;stroke-width:1;stroke-linecap:butt;stroke-linejoin:miter;stroke-miterlimit:10;stroke-dasharray:none;stroke-opacity:1"
       d="m 80,122 494,0" /><path
       inkscape:connector-curvature="0"
       id="path4664"
       style="fill:none;stroke:#ff0000;stroke-width:1;stroke-linecap:butt;stroke-linejoin:miter;stroke-miterlimit:10;stroke-dasharray:none;stroke-opacity:1"
       d="m 80,122 494,0" /><path
       inkscape:connector-curvature="0"
       id="path4666"
       style="fill:none;stroke:#0000ff;stroke-width:1;stroke-linecap:butt;stroke-linejoin:miter;stroke-miterlimit:10;stroke-dasharray:none;stroke-opacity:1"
       d="m 78,586 24,0" /><g
       id="g4668"><text
         id="text4670"
         style="font-variant:normal;font-weight:normal;font-size:10px;font-family:Helvetica;-inkscape-font-specification:Helvetica;writing-mode:lr-tb;fill:#000000;fill-opacity:1;fill-rule:nonzero;stroke:none"
         transform="matrix(1,0,0,-1,108,582)"><tspan
           id="tspan4672"
           sodipodi:role="line"
           y="0"
           x="0 5.5599999 10.56 16.120001 21.120001">gcasc</tspan></text>
</g><path
       inkscape:connector-curvature="0"
       id="path4674"
       style="fill:none;stroke:#0000ff;stroke-width:1;stroke-linecap:butt;stroke-linejoin:miter;stroke-miterlimit:10;stroke-dasharray:none;stroke-opacity:1"
       d="m 80,369 3,8 2,5 3,4 2,3 3,3 2,2 3,2 2,2 3,2 2,2 3,2 2,1 3,2 2,1 3,2 2,1 3,1 2,2 3,1 2,1 3,1 2,1 3,2 2,1 2,1 3,1 2,1 3,1 2,1 3,1 2,1 3,1 2,1 3,0 2,1 3,1 2,1 3,1 2,1 3,1 2,1 3,0 2,1 3,1 2,1 3,1 2,0 3,1 2,1 2,1 3,1 2,0 3,1 2,1 3,1 2,0 3,1 2,1 3,1 2,0 3,1 2,1 3,0 2,1 3,1 2,0 3,1 2,1 3,0 2,1 3,1 2,0 3,1 2,1 2,0 3,1 2,1 3,0 2,1 3,1 2,0 3,1 2,0 3,1 2,1 3,0 2,1 3,0 2,1 3,1 2,0 3,1 2,0 3,1 2,0 3,1 2,0 3,1 2,1 2,0 3,1 2,0 3,1 2,0 3,1 2,0 3,1 2,0 3,1 2,0 3,1 2,0 3,1 2,0 3,1 2,0 3,0 2,1 3,0 2,1 3,0 2,1 3,0 2,1 2,0 3,0 2,1 3,0 2,1 3,0 2,0 3,1 2,0 3,0 2,1 3,0 2,1 3,0 2,0 3,1 2,0 3,0 2,1 3,0 2,0 3,1 2,0 3,0 2,1 2,0 3,0 2,1 3,0 2,0 3,1 2,0 3,0 2,0 3,1 2,0 3,0 2,0 3,1 2,0 3,0 2,1 3,0 2,0 3,0 2,1 3,0 2,0 3,0 2,0 2,1 3,0 2,0 3,0 2,1 3,0 2,0 3,0 2,0 3,1 2,0 3,0 2,0 3,0 2,1 3,0 2,0 3,0 2,0 3,0 2,1 3,0 2,0 3,0 2,0" /><path
       inkscape:connector-curvature="0"
       id="path4676"
       style="fill:none;stroke:#0000ff;stroke-width:1;stroke-linecap:butt;stroke-linejoin:miter;stroke-miterlimit:10;stroke-dasharray:none;stroke-opacity:1"
       d="m 80,369 3,8 2,5 3,4 2,3 3,3 2,2 3,2 2,2 3,2 2,2 3,2 2,1 3,2 2,1 3,2 2,1 3,1 2,2 3,1 2,1 3,1 2,1 3,2 2,1 2,1 3,1 2,1 3,1 2,1 3,1 2,1 3,1 2,1 3,0 2,1 3,1 2,1 3,1 2,1 3,1 2,1 3,0 2,1 3,1 2,1 3,1 2,0 3,1 2,1 2,1 3,1 2,0 3,1 2,1 3,1 2,0 3,1 2,1 3,1 2,0 3,1 2,1 3,0 2,1 3,1 2,0 3,1 2,1 3,0 2,1 3,1 2,0 3,1 2,1 2,0 3,1 2,1 3,0 2,1 3,1 2,0 3,1 2,0 3,1 2,1 3,0 2,1 3,0 2,1 3,1 2,0 3,1 2,0 3,1 2,0 3,1 2,0 3,1 2,1 2,0 3,1 2,0 3,1 2,0 3,1 2,0 3,1 2,0 3,1 2,0 3,1 2,0 3,1 2,0 3,1 2,0 3,0 2,1 3,0 2,1 3,0 2,1 3,0 2,1 2,0 3,0 2,1 3,0 2,1 3,0 2,0 3,1 2,0 3,0 2,1 3,0 2,1 3,0 2,0 3,1 2,0 3,0 2,1 3,0 2,0 3,1 2,0 3,0 2,1 2,0 3,0 2,1 3,0 2,0 3,1 2,0 3,0 2,0 3,1 2,0 3,0 2,0 3,1 2,0 3,0 2,1 3,0 2,0 3,0 2,1 3,0 2,0 3,0 2,0 2,1 3,0 2,0 3,0 2,1 3,0 2,0 3,0 2,0 3,1 2,0 3,0 2,0 3,0 2,1 3,0 2,0 3,0 2,0 3,0 2,1 3,0 2,0 3,0 2,0" /><path
       inkscape:connector-curvature="0"
       id="path4678"
       style="fill:none;stroke:#0000ff;stroke-width:1;stroke-linecap:butt;stroke-linejoin:miter;stroke-miterlimit:10;stroke-dasharray:none;stroke-opacity:1"
       d="m 80,369 3,8 2,5 3,4 2,3 3,3 2,2 3,2 2,2 3,2 2,2 3,2 2,1 3,2 2,1 3,2 2,1 3,1 2,2 3,1 2,1 3,1 2,1 3,2 2,1 2,1 3,1 2,1 3,1 2,1 3,1 2,1 3,1 2,1 3,0 2,1 3,1 2,1 3,1 2,1 3,1 2,1 3,0 2,1 3,1 2,1 3,1 2,0 3,1 2,1 2,1 3,1 2,0 3,1 2,1 3,1 2,0 3,1 2,1 3,1 2,0 3,1 2,1 3,0 2,1 3,1 2,0 3,1 2,1 3,0 2,1 3,1 2,0 3,1 2,1 2,0 3,1 2,1 3,0 2,1 3,1 2,0 3,1 2,0 3,1 2,1 3,0 2,1 3,0 2,1 3,1 2,0 3,1 2,0 3,1 2,0 3,1 2,0 3,1 2,1 2,0 3,1 2,0 3,1 2,0 3,1 2,0 3,1 2,0 3,1 2,0 3,1 2,0 3,1 2,0 3,1 2,0 3,0 2,1 3,0 2,1 3,0 2,1 3,0 2,1 2,0 3,0 2,1 3,0 2,1 3,0 2,0 3,1 2,0 3,0 2,1 3,0 2,1 3,0 2,0 3,1 2,0 3,0 2,1 3,0 2,0 3,1 2,0 3,0 2,1 2,0 3,0 2,1 3,0 2,0 3,1 2,0 3,0 2,0 3,1 2,0 3,0 2,0 3,1 2,0 3,0 2,1 3,0 2,0 3,0 2,1 3,0 2,0 3,0 2,0 2,1 3,0 2,0 3,0 2,1 3,0 2,0 3,0 2,0 3,1 2,0 3,0 2,0 3,0 2,1 3,0 2,0 3,0 2,0 3,0 2,1 3,0 2,0 3,0 2,0" /><path
       inkscape:connector-curvature="0"
       id="path4680"
       style="fill:none;stroke:#0000ff;stroke-width:1;stroke-linecap:butt;stroke-linejoin:miter;stroke-miterlimit:10;stroke-dasharray:none;stroke-opacity:1"
       d="m 80,369 3,8 2,5 3,4 2,3 3,3 2,2 3,2 2,2 3,2 2,2 3,2 2,1 3,2 2,1 3,2 2,1 3,1 2,2 3,1 2,1 3,1 2,1 3,2 2,1 2,1 3,1 2,1 3,1 2,1 3,1 2,1 3,1 2,1 3,0 2,1 3,1 2,1 3,1 2,1 3,1 2,1 3,0 2,1 3,1 2,1 3,1 2,0 3,1 2,1 2,1 3,1 2,0 3,1 2,1 3,1 2,0 3,1 2,1 3,1 2,0 3,1 2,1 3,0 2,1 3,1 2,0 3,1 2,1 3,0 2,1 3,1 2,0 3,1 2,1 2,0 3,1 2,1 3,0 2,1 3,1 2,0 3,1 2,0 3,1 2,1 3,0 2,1 3,0 2,1 3,1 2,0 3,1 2,0 3,1 2,0 3,1 2,0 3,1 2,1 2,0 3,1 2,0 3,1 2,0 3,1 2,0 3,1 2,0 3,1 2,0 3,1 2,0 3,1 2,0 3,1 2,0 3,0 2,1 3,0 2,1 3,0 2,1 3,0 2,1 2,0 3,0 2,1 3,0 2,1 3,0 2,0 3,1 2,0 3,0 2,1 3,0 2,1 3,0 2,0 3,1 2,0 3,0 2,1 3,0 2,0 3,1 2,0 3,0 2,1 2,0 3,0 2,1 3,0 2,0 3,1 2,0 3,0 2,0 3,1 2,0 3,0 2,0 3,1 2,0 3,0 2,1 3,0 2,0 3,0 2,1 3,0 2,0 3,0 2,0 2,1 3,0 2,0 3,0 2,1 3,0 2,0 3,0 2,0 3,1 2,0 3,0 2,0 3,0 2,1 3,0 2,0 3,0 2,0 3,0 2,1 3,0 2,0 3,0 2,0" /><path
       inkscape:connector-curvature="0"
       id="path4682"
       style="fill:none;stroke:#0000ff;stroke-width:1;stroke-linecap:butt;stroke-linejoin:miter;stroke-miterlimit:10;stroke-dasharray:none;stroke-opacity:1"
       d="m 80,369 3,8 2,5 3,4 2,3 3,3 2,2 3,2 2,2 3,2 2,2 3,2 2,1 3,2 2,1 3,2 2,1 3,1 2,2 3,1 2,1 3,1 2,1 3,2 2,1 2,1 3,1 2,1 3,1 2,1 3,1 2,1 3,1 2,1 3,0 2,1 3,1 2,1 3,1 2,1 3,1 2,1 3,0 2,1 3,1 2,1 3,1 2,0 3,1 2,1 2,1 3,1 2,0 3,1 2,1 3,1 2,0 3,1 2,1 3,1 2,0 3,1 2,1 3,0 2,1 3,1 2,0 3,1 2,1 3,0 2,1 3,1 2,0 3,1 2,1 2,0 3,1 2,1 3,0 2,1 3,1 2,0 3,1 2,0 3,1 2,1 3,0 2,1 3,0 2,1 3,1 2,0 3,1 2,0 3,1 2,0 3,1 2,0 3,1 2,1 2,0 3,1 2,0 3,1 2,0 3,1 2,0 3,1 2,0 3,1 2,0 3,1 2,0 3,1 2,0 3,1 2,0 3,0 2,1 3,0 2,1 3,0 2,1 3,0 2,1 2,0 3,0 2,1 3,0 2,1 3,0 2,0 3,1 2,0 3,0 2,1 3,0 2,1 3,0 2,0 3,1 2,0 3,0 2,1 3,0 2,0 3,1 2,0 3,0 2,1 2,0 3,0 2,1 3,0 2,0 3,1 2,0 3,0 2,0 3,1 2,0 3,0 2,0 3,1 2,0 3,0 2,1 3,0 2,0 3,0 2,1 3,0 2,0 3,0 2,0 2,1 3,0 2,0 3,0 2,1 3,0 2,0 3,0 2,0 3,1 2,0 3,0 2,0 3,0 2,1 3,0 2,0 3,0 2,0 3,0 2,1 3,0 2,0 3,0 2,0" /><path
       inkscape:connector-curvature="0"
       id="path4684"
       style="fill:none;stroke:#ffa500;stroke-width:1;stroke-linecap:butt;stroke-linejoin:miter;stroke-miterlimit:10;stroke-dasharray:none;stroke-opacity:1"
       d="m 296,572 24,0" /><g
       id="g4686"><text
         id="text4688"
         style="font-variant:normal;font-weight:normal;font-size:10px;font-family:Helvetica;-inkscape-font-specification:Helvetica;writing-mode:lr-tb;fill:#000000;fill-opacity:1;fill-rule:nonzero;stroke:none"
         transform="matrix(1,0,0,-1,326,568)"><tspan
           id="tspan4690"
           sodipodi:role="line"
           y="0"
           x="0 8.3299999 10.55">mir</tspan></text>
</g><path
       inkscape:connector-curvature="0"
       id="path4692"
       style="fill:none;stroke:#ffa500;stroke-width:1;stroke-linecap:butt;stroke-linejoin:miter;stroke-miterlimit:10;stroke-dasharray:none;stroke-opacity:1"
       d="m 80,367 3,-8 2,-5 3,-5 2,-3 3,-3 2,-3 3,-3 2,-2 3,-2 2,-2 3,-2 2,-2 3,-1 2,-2 3,-1 2,-2 3,-1 2,-2 3,-1 2,-1 3,-1 2,-2 3,-1 2,-1 2,-1 3,-1 2,-1 3,-1 2,-1 3,-1 2,-1 3,-1 2,0 3,-1 2,-1 3,-1 2,-1 3,0 2,-1 3,-1 2,-1 3,0 2,-1 3,-1 2,0 3,-1 2,-1 3,0 2,-1 2,-1 3,0 2,-1 3,0 2,-1 3,0 2,-1 3,-1 2,0 3,-1 2,0 3,-1 2,0 3,-1 2,0 3,0 2,-1 3,0 2,-1 3,0 2,-1 3,0 2,0 3,-1 2,0 2,-1 3,0 2,0 3,-1 2,0 3,0 2,-1 3,0 2,-1 3,0 2,0 3,-1 2,0 3,0 2,0 3,-1 2,0 3,0 2,-1 3,0 2,0 3,0 2,-1 3,0 2,0 2,-1 3,0 2,0 3,0 2,-1 3,0 2,0 3,0 2,0 3,-1 2,0 3,0 2,0 3,-1 2,0 3,0 2,0 3,0 2,0 3,-1 2,0 3,0 2,0 3,0 2,-1 2,0 3,0 2,0 3,0 2,0 3,-1 2,0 3,0 2,0 3,0 2,0 3,0 2,-1 3,0 2,0 3,0 2,0 3,0 2,0 3,-1 2,0 3,0 2,0 3,0 2,0 2,0 3,0 2,0 3,-1 2,0 3,0 2,0 3,0 2,0 3,0 2,0 3,0 2,0 3,-1 2,0 3,0 2,0 3,0 2,0 3,0 2,0 3,0 2,0 3,0 2,0 2,-1 3,0 2,0 3,0 2,0 3,0 2,0 3,0 2,0 3,0 2,0 3,0 2,0 3,0 2,0 3,-1 2,0 3,0 2,0 3,0 2,0 3,0 2,0 3,0 2,0" /><path
       inkscape:connector-curvature="0"
       id="path4694"
       style="fill:none;stroke:#ffa500;stroke-width:1;stroke-linecap:butt;stroke-linejoin:miter;stroke-miterlimit:10;stroke-dasharray:none;stroke-opacity:1"
       d="m 80,367 3,-8 2,-5 3,-5 2,-3 3,-3 2,-3 3,-3 2,-2 3,-2 2,-2 3,-2 2,-2 3,-1 2,-2 3,-1 2,-2 3,-1 2,-2 3,-1 2,-1 3,-1 2,-2 3,-1 2,-1 2,-1 3,-1 2,-1 3,-1 2,-1 3,-1 2,-1 3,-1 2,0 3,-1 2,-1 3,-1 2,-1 3,0 2,-1 3,-1 2,-1 3,0 2,-1 3,-1 2,0 3,-1 2,-1 3,0 2,-1 2,-1 3,0 2,-1 3,0 2,-1 3,0 2,-1 3,-1 2,0 3,-1 2,0 3,-1 2,0 3,-1 2,0 3,0 2,-1 3,0 2,-1 3,0 2,-1 3,0 2,0 3,-1 2,0 2,-1 3,0 2,0 3,-1 2,0 3,0 2,-1 3,0 2,-1 3,0 2,0 3,-1 2,0 3,0 2,0 3,-1 2,0 3,0 2,-1 3,0 2,0 3,0 2,-1 3,0 2,0 2,-1 3,0 2,0 3,0 2,-1 3,0 2,0 3,0 2,0 3,-1 2,0 3,0 2,0 3,-1 2,0 3,0 2,0 3,0 2,0 3,-1 2,0 3,0 2,0 3,0 2,-1 2,0 3,0 2,0 3,0 2,0 3,-1 2,0 3,0 2,0 3,0 2,0 3,0 2,-1 3,0 2,0 3,0 2,0 3,0 2,0 3,-1 2,0 3,0 2,0 3,0 2,0 2,0 3,0 2,0 3,-1 2,0 3,0 2,0 3,0 2,0 3,0 2,0 3,0 2,0 3,-1 2,0 3,0 2,0 3,0 2,0 3,0 2,0 3,0 2,0 3,0 2,0 2,-1 3,0 2,0 3,0 2,0 3,0 2,0 3,0 2,0 3,0 2,0 3,0 2,0 3,0 2,0 3,-1 2,0 3,0 2,0 3,0 2,0 3,0 2,0 3,0 2,0" /><path
       inkscape:connector-curvature="0"
       id="path4696"
       style="fill:none;stroke:#ffa500;stroke-width:1;stroke-linecap:butt;stroke-linejoin:miter;stroke-miterlimit:10;stroke-dasharray:none;stroke-opacity:1"
       d="m 80,367 3,-8 2,-5 3,-5 2,-3 3,-3 2,-3 3,-3 2,-2 3,-2 2,-2 3,-2 2,-2 3,-1 2,-2 3,-1 2,-2 3,-1 2,-2 3,-1 2,-1 3,-1 2,-2 3,-1 2,-1 2,-1 3,-1 2,-1 3,-1 2,-1 3,-1 2,-1 3,-1 2,0 3,-1 2,-1 3,-1 2,-1 3,0 2,-1 3,-1 2,-1 3,0 2,-1 3,-1 2,0 3,-1 2,-1 3,0 2,-1 2,-1 3,0 2,-1 3,0 2,-1 3,0 2,-1 3,-1 2,0 3,-1 2,0 3,-1 2,0 3,-1 2,0 3,0 2,-1 3,0 2,-1 3,0 2,-1 3,0 2,0 3,-1 2,0 2,-1 3,0 2,0 3,-1 2,0 3,0 2,-1 3,0 2,-1 3,0 2,0 3,-1 2,0 3,0 2,0 3,-1 2,0 3,0 2,-1 3,0 2,0 3,0 2,-1 3,0 2,0 2,-1 3,0 2,0 3,0 2,-1 3,0 2,0 3,0 2,0 3,-1 2,0 3,0 2,0 3,-1 2,0 3,0 2,0 3,0 2,0 3,-1 2,0 3,0 2,0 3,0 2,-1 2,0 3,0 2,0 3,0 2,0 3,-1 2,0 3,0 2,0 3,0 2,0 3,0 2,-1 3,0 2,0 3,0 2,0 3,0 2,0 3,-1 2,0 3,0 2,0 3,0 2,0 2,0 3,0 2,0 3,-1 2,0 3,0 2,0 3,0 2,0 3,0 2,0 3,0 2,0 3,-1 2,0 3,0 2,0 3,0 2,0 3,0 2,0 3,0 2,0 3,0 2,0 2,-1 3,0 2,0 3,0 2,0 3,0 2,0 3,0 2,0 3,0 2,0 3,0 2,0 3,0 2,0 3,-1 2,0 3,0 2,0 3,0 2,0 3,0 2,0 3,0 2,0" /><path
       inkscape:connector-curvature="0"
       id="path4698"
       style="fill:none;stroke:#ffa500;stroke-width:1;stroke-linecap:butt;stroke-linejoin:miter;stroke-miterlimit:10;stroke-dasharray:none;stroke-opacity:1"
       d="m 80,367 3,-8 2,-5 3,-5 2,-3 3,-3 2,-3 3,-3 2,-2 3,-2 2,-2 3,-2 2,-2 3,-1 2,-2 3,-1 2,-2 3,-1 2,-2 3,-1 2,-1 3,-1 2,-2 3,-1 2,-1 2,-1 3,-1 2,-1 3,-1 2,-1 3,-1 2,-1 3,-1 2,0 3,-1 2,-1 3,-1 2,-1 3,0 2,-1 3,-1 2,-1 3,0 2,-1 3,-1 2,0 3,-1 2,-1 3,0 2,-1 2,-1 3,0 2,-1 3,0 2,-1 3,0 2,-1 3,-1 2,0 3,-1 2,0 3,-1 2,0 3,-1 2,0 3,0 2,-1 3,0 2,-1 3,0 2,-1 3,0 2,0 3,-1 2,0 2,-1 3,0 2,0 3,-1 2,0 3,0 2,-1 3,0 2,-1 3,0 2,0 3,-1 2,0 3,0 2,0 3,-1 2,0 3,0 2,-1 3,0 2,0 3,0 2,-1 3,0 2,0 2,-1 3,0 2,0 3,0 2,-1 3,0 2,0 3,0 2,0 3,-1 2,0 3,0 2,0 3,-1 2,0 3,0 2,0 3,0 2,0 3,-1 2,0 3,0 2,0 3,0 2,-1 2,0 3,0 2,0 3,0 2,0 3,-1 2,0 3,0 2,0 3,0 2,0 3,0 2,-1 3,0 2,0 3,0 2,0 3,0 2,0 3,-1 2,0 3,0 2,0 3,0 2,0 2,0 3,0 2,0 3,-1 2,0 3,0 2,0 3,0 2,0 3,0 2,0 3,0 2,0 3,-1 2,0 3,0 2,0 3,0 2,0 3,0 2,0 3,0 2,0 3,0 2,0 2,-1 3,0 2,0 3,0 2,0 3,0 2,0 3,0 2,0 3,0 2,0 3,0 2,0 3,0 2,0 3,-1 2,0 3,0 2,0 3,0 2,0 3,0 2,0 3,0 2,0" /><path
       inkscape:connector-curvature="0"
       id="path4700"
       style="fill:none;stroke:#ffa500;stroke-width:1;stroke-linecap:butt;stroke-linejoin:miter;stroke-miterlimit:10;stroke-dasharray:none;stroke-opacity:1"
       d="m 80,367 3,-8 2,-5 3,-5 2,-3 3,-3 2,-3 3,-3 2,-2 3,-2 2,-2 3,-2 2,-2 3,-1 2,-2 3,-1 2,-2 3,-1 2,-2 3,-1 2,-1 3,-1 2,-2 3,-1 2,-1 2,-1 3,-1 2,-1 3,-1 2,-1 3,-1 2,-1 3,-1 2,0 3,-1 2,-1 3,-1 2,-1 3,0 2,-1 3,-1 2,-1 3,0 2,-1 3,-1 2,0 3,-1 2,-1 3,0 2,-1 2,-1 3,0 2,-1 3,0 2,-1 3,0 2,-1 3,-1 2,0 3,-1 2,0 3,-1 2,0 3,-1 2,0 3,0 2,-1 3,0 2,-1 3,0 2,-1 3,0 2,0 3,-1 2,0 2,-1 3,0 2,0 3,-1 2,0 3,0 2,-1 3,0 2,-1 3,0 2,0 3,-1 2,0 3,0 2,0 3,-1 2,0 3,0 2,-1 3,0 2,0 3,0 2,-1 3,0 2,0 2,-1 3,0 2,0 3,0 2,-1 3,0 2,0 3,0 2,0 3,-1 2,0 3,0 2,0 3,-1 2,0 3,0 2,0 3,0 2,0 3,-1 2,0 3,0 2,0 3,0 2,-1 2,0 3,0 2,0 3,0 2,0 3,-1 2,0 3,0 2,0 3,0 2,0 3,0 2,-1 3,0 2,0 3,0 2,0 3,0 2,0 3,-1 2,0 3,0 2,0 3,0 2,0 2,0 3,0 2,0 3,-1 2,0 3,0 2,0 3,0 2,0 3,0 2,0 3,0 2,0 3,-1 2,0 3,0 2,0 3,0 2,0 3,0 2,0 3,0 2,0 3,0 2,0 2,-1 3,0 2,0 3,0 2,0 3,0 2,0 3,0 2,0 3,0 2,0 3,0 2,0 3,0 2,0 3,-1 2,0 3,0 2,0 3,0 2,0 3,0 2,0 3,0 2,0" /></g></svg>