<?xml version="1.0" encoding="UTF-8" standalone="no"?>
<!-- Created with Inkscape (http://www.inkscape.org/) -->

<svg
   xmlns:dc="http://purl.org/dc/elements/1.1/"
   xmlns:cc="http://creativecommons.org/ns#"
   xmlns:rdf="http://www.w3.org/1999/02/22-rdf-syntax-ns#"
   xmlns:svg="http://www.w3.org/2000/svg"
   xmlns="http://www.w3.org/2000/svg"
   xmlns:sodipodi="http://sodipodi.sourceforge.net/DTD/sodipodi-0.dtd"
   xmlns:inkscape="http://www.inkscape.org/namespaces/inkscape"
   id="svg4526"
   version="1.1"
   inkscape:version="0.91 r13725"
   xml:space="preserve"
   width="743.75"
   height="1052.5"
   viewBox="0 0 743.75 1052.5"
   sodipodi:docname="RegulatedCascodeBias.voltages.svg"><metadata
     id="metadata4532"><rdf:RDF><cc:Work
         rdf:about=""><dc:format>image/svg+xml</dc:format><dc:type
           rdf:resource="http://purl.org/dc/dcmitype/StillImage" /><dc:title></dc:title></cc:Work></rdf:RDF></metadata><defs
     id="defs4530" /><sodipodi:namedview
     pagecolor="#ffffff"
     bordercolor="#666666"
     borderopacity="1"
     objecttolerance="10"
     gridtolerance="10"
     guidetolerance="10"
     inkscape:pageopacity="0"
     inkscape:pageshadow="2"
     inkscape:window-width="1335"
     inkscape:window-height="922"
     id="namedview4528"
     showgrid="false"
     inkscape:zoom="0.7239905"
     inkscape:cx="371.875"
     inkscape:cy="526.25"
     inkscape:window-x="2049"
     inkscape:window-y="48"
     inkscape:window-maximized="0"
     inkscape:current-layer="g4534" /><g
     id="g4534"
     inkscape:groupmode="layer"
     inkscape:label="ink_ext_XXXXXX"
     transform="matrix(1.25,0,0,-1.25,0,1052.5)"><g
       id="g4536"
       transform="scale(0.1,0.1)"><path
         d="m 220,220 5720,0 0,5900 -5720,0 0,-5900 z"
         style="fill:#ffffff;fill-opacity:1;fill-rule:nonzero;stroke:none"
         id="path4538"
         inkscape:connector-curvature="0" /><g
         id="g4540"
         transform="scale(10,10)"><text
           transform="matrix(1,0,0,-1,243,66)"
           style="font-variant:normal;font-weight:normal;font-size:10px;font-family:Helvetica;-inkscape-font-specification:Helvetica;writing-mode:lr-tb;fill:#000000;fill-opacity:1;fill-rule:nonzero;stroke:none"
           id="text4542"><tspan
             x="0 5 10.84 15.84 23.059999 28.620001 34.18"
             y="0"
             sodipodi:role="line"
             id="tspan4544">v−sweep</tspan><tspan
             x="-189 -183.44 -178.44 -172.88 -170.10001 -167.32001 -163.42999 -159.53999 -156.75999 -151.75999 -146.2 -140.64 -135.64 -130.64 -127.86 -125.08 -121.75 -116.19 -110.63 -105.07 -102.85 -97.290001 -94.510002 -88.949997 -83.389999 -78.389999 -72.830002 -67.830002 -62.830002 -57.27 -51.709999 -46.150002 -40.59 -38.369999 -32.810001"
             y="-530"
             sodipodi:role="line"
             id="tspan4546">dc1: **.subckt regulatedcascodebias</tspan></text>
</g><path
         d="m 780,1040 0,4440"
         style="fill:none;stroke:#000000;stroke-width:10;stroke-linecap:butt;stroke-linejoin:miter;stroke-miterlimit:10;stroke-dasharray:none;stroke-opacity:1"
         id="path4548"
         inkscape:connector-curvature="0" /><g
         id="g4550"
         transform="scale(10,10)"><text
           transform="matrix(1,0,0,-1,69,87)"
           style="font-variant:normal;font-weight:normal;font-size:10px;font-family:Helvetica;-inkscape-font-specification:Helvetica;writing-mode:lr-tb;fill:#000000;fill-opacity:1;fill-rule:nonzero;stroke:none"
           id="text4552"><tspan
             x="0 5.5599999 8.3400002"
             y="0"
             sodipodi:role="line"
             id="tspan4554">0.0</tspan></text>
</g><path
         d="m 2020,1040 0,4440"
         style="fill:none;stroke:#606060;stroke-width:10;stroke-linecap:butt;stroke-linejoin:miter;stroke-miterlimit:10;stroke-dasharray:none;stroke-opacity:1"
         id="path4556"
         inkscape:connector-curvature="0" /><g
         id="g4558"
         transform="scale(10,10)"><text
           transform="matrix(1,0,0,-1,190,87)"
           style="font-variant:normal;font-weight:normal;font-size:10px;font-family:Helvetica;-inkscape-font-specification:Helvetica;writing-mode:lr-tb;fill:#000000;fill-opacity:1;fill-rule:nonzero;stroke:none"
           id="text4560"><tspan
             x="0 5.5599999 11.12 13.9"
             y="0"
             sodipodi:role="line"
             id="tspan4562">50.0</tspan></text>
</g><path
         d="m 3260,1040 0,4440"
         style="fill:none;stroke:#606060;stroke-width:10;stroke-linecap:butt;stroke-linejoin:miter;stroke-miterlimit:10;stroke-dasharray:none;stroke-opacity:1"
         id="path4564"
         inkscape:connector-curvature="0" /><g
         id="g4566"
         transform="scale(10,10)"><text
           transform="matrix(1,0,0,-1,311,87)"
           style="font-variant:normal;font-weight:normal;font-size:10px;font-family:Helvetica;-inkscape-font-specification:Helvetica;writing-mode:lr-tb;fill:#000000;fill-opacity:1;fill-rule:nonzero;stroke:none"
           id="text4568"><tspan
             x="0 5.5599999 11.12 16.68 19.459999"
             y="0"
             sodipodi:role="line"
             id="tspan4570">100.0</tspan></text>
</g><path
         d="m 4500,1040 0,4440"
         style="fill:none;stroke:#606060;stroke-width:10;stroke-linecap:butt;stroke-linejoin:miter;stroke-miterlimit:10;stroke-dasharray:none;stroke-opacity:1"
         id="path4572"
         inkscape:connector-curvature="0" /><g
         id="g4574"
         transform="scale(10,10)"><text
           transform="matrix(1,0,0,-1,435,87)"
           style="font-variant:normal;font-weight:normal;font-size:10px;font-family:Helvetica;-inkscape-font-specification:Helvetica;writing-mode:lr-tb;fill:#000000;fill-opacity:1;fill-rule:nonzero;stroke:none"
           id="text4576"><tspan
             x="0 5.5599999 11.12 16.68 19.459999"
             y="0"
             sodipodi:role="line"
             id="tspan4578">150.0</tspan></text>
</g><path
         d="m 5740,1040 0,4440"
         style="fill:none;stroke:#606060;stroke-width:10;stroke-linecap:butt;stroke-linejoin:miter;stroke-miterlimit:10;stroke-dasharray:none;stroke-opacity:1"
         id="path4580"
         inkscape:connector-curvature="0" /><g
         id="g4582"
         transform="scale(10,10)"><text
           transform="matrix(1,0,0,-1,559,87)"
           style="font-variant:normal;font-weight:normal;font-size:10px;font-family:Helvetica;-inkscape-font-specification:Helvetica;writing-mode:lr-tb;fill:#000000;fill-opacity:1;fill-rule:nonzero;stroke:none"
           id="text4584"><tspan
             x="0 5.5599999 11.12 16.68 19.459999"
             y="0"
             sodipodi:role="line"
             id="tspan4586">200.0</tspan><tspan
             x="-177"
             y="21"
             id="tspan4588">V</tspan></text>
</g><path
         d="m 780,1040 4960,0"
         style="fill:none;stroke:#606060;stroke-width:10;stroke-linecap:butt;stroke-linejoin:miter;stroke-miterlimit:10;stroke-dasharray:none;stroke-opacity:1"
         id="path4590"
         inkscape:connector-curvature="0" /><g
         id="g4592"
         transform="scale(10,10)"><text
           transform="matrix(1,0,0,-1,58,101)"
           style="font-variant:normal;font-weight:normal;font-size:10px;font-family:Helvetica;-inkscape-font-specification:Helvetica;writing-mode:lr-tb;fill:#000000;fill-opacity:1;fill-rule:nonzero;stroke:none"
           id="text4594"><tspan
             x="0 5.5599999 8.3400002"
             y="0"
             sodipodi:role="line"
             id="tspan4596">0.4</tspan></text>
</g><path
         d="m 780,1780 4960,0"
         style="fill:none;stroke:#606060;stroke-width:10;stroke-linecap:butt;stroke-linejoin:miter;stroke-miterlimit:10;stroke-dasharray:none;stroke-opacity:1"
         id="path4598"
         inkscape:connector-curvature="0" /><g
         id="g4600"
         transform="scale(10,10)"><text
           transform="matrix(1,0,0,-1,58,175)"
           style="font-variant:normal;font-weight:normal;font-size:10px;font-family:Helvetica;-inkscape-font-specification:Helvetica;writing-mode:lr-tb;fill:#000000;fill-opacity:1;fill-rule:nonzero;stroke:none"
           id="text4602"><tspan
             x="0 5.5599999 8.3400002"
             y="0"
             sodipodi:role="line"
             id="tspan4604">0.6</tspan></text>
</g><path
         d="m 780,2520 4960,0"
         style="fill:none;stroke:#606060;stroke-width:10;stroke-linecap:butt;stroke-linejoin:miter;stroke-miterlimit:10;stroke-dasharray:none;stroke-opacity:1"
         id="path4606"
         inkscape:connector-curvature="0" /><g
         id="g4608"
         transform="scale(10,10)"><text
           transform="matrix(1,0,0,-1,58,249)"
           style="font-variant:normal;font-weight:normal;font-size:10px;font-family:Helvetica;-inkscape-font-specification:Helvetica;writing-mode:lr-tb;fill:#000000;fill-opacity:1;fill-rule:nonzero;stroke:none"
           id="text4610"><tspan
             x="0 5.5599999 8.3400002"
             y="0"
             sodipodi:role="line"
             id="tspan4612">0.8</tspan></text>
</g><path
         d="m 780,3260 4960,0"
         style="fill:none;stroke:#606060;stroke-width:10;stroke-linecap:butt;stroke-linejoin:miter;stroke-miterlimit:10;stroke-dasharray:none;stroke-opacity:1"
         id="path4614"
         inkscape:connector-curvature="0" /><g
         id="g4616"
         transform="scale(10,10)"><text
           transform="matrix(1,0,0,-1,58,323)"
           style="font-variant:normal;font-weight:normal;font-size:10px;font-family:Helvetica;-inkscape-font-specification:Helvetica;writing-mode:lr-tb;fill:#000000;fill-opacity:1;fill-rule:nonzero;stroke:none"
           id="text4618"><tspan
             x="0 5.5599999 8.3400002"
             y="0"
             sodipodi:role="line"
             id="tspan4620">1.0</tspan></text>
</g><path
         d="m 780,4000 4960,0"
         style="fill:none;stroke:#606060;stroke-width:10;stroke-linecap:butt;stroke-linejoin:miter;stroke-miterlimit:10;stroke-dasharray:none;stroke-opacity:1"
         id="path4622"
         inkscape:connector-curvature="0" /><g
         id="g4624"
         transform="scale(10,10)"><text
           transform="matrix(1,0,0,-1,58,397)"
           style="font-variant:normal;font-weight:normal;font-size:10px;font-family:Helvetica;-inkscape-font-specification:Helvetica;writing-mode:lr-tb;fill:#000000;fill-opacity:1;fill-rule:nonzero;stroke:none"
           id="text4626"><tspan
             x="0 5.5599999 8.3400002"
             y="0"
             sodipodi:role="line"
             id="tspan4628">1.2</tspan></text>
</g><path
         d="m 780,4740 4960,0"
         style="fill:none;stroke:#606060;stroke-width:10;stroke-linecap:butt;stroke-linejoin:miter;stroke-miterlimit:10;stroke-dasharray:none;stroke-opacity:1"
         id="path4630"
         inkscape:connector-curvature="0" /><g
         id="g4632"
         transform="scale(10,10)"><text
           transform="matrix(1,0,0,-1,58,471)"
           style="font-variant:normal;font-weight:normal;font-size:10px;font-family:Helvetica;-inkscape-font-specification:Helvetica;writing-mode:lr-tb;fill:#000000;fill-opacity:1;fill-rule:nonzero;stroke:none"
           id="text4634"><tspan
             x="0 5.5599999 8.3400002"
             y="0"
             sodipodi:role="line"
             id="tspan4636">1.4</tspan></text>
</g><path
         d="m 780,5480 4960,0"
         style="fill:none;stroke:#606060;stroke-width:10;stroke-linecap:butt;stroke-linejoin:miter;stroke-miterlimit:10;stroke-dasharray:none;stroke-opacity:1"
         id="path4638"
         inkscape:connector-curvature="0" /><g
         id="g4640"
         transform="scale(10,10)"><text
           transform="matrix(1,0,0,-1,58,545)"
           style="font-variant:normal;font-weight:normal;font-size:10px;font-family:Helvetica;-inkscape-font-specification:Helvetica;writing-mode:lr-tb;fill:#000000;fill-opacity:1;fill-rule:nonzero;stroke:none"
           id="text4642"><tspan
             x="0 5.5599999 8.3400002"
             y="0"
             sodipodi:role="line"
             id="tspan4644">1.6</tspan><tspan
             x="-4"
             y="-37"
             id="tspan4646">V</tspan></text>
</g><path
         d="m 2960,5860 240,0"
         style="fill:none;stroke:#ff0000;stroke-width:10;stroke-linecap:butt;stroke-linejoin:miter;stroke-miterlimit:10;stroke-dasharray:none;stroke-opacity:1"
         id="path4648"
         inkscape:connector-curvature="0" /><g
         id="g4650"
         transform="scale(10,10)"><text
           transform="matrix(1,0,0,-1,326,582)"
           style="font-variant:normal;font-weight:normal;font-size:10px;font-family:Helvetica;-inkscape-font-specification:Helvetica;writing-mode:lr-tb;fill:#000000;fill-opacity:1;fill-rule:nonzero;stroke:none"
           id="text4652"><tspan
             x="0 5 10.56 16.120001"
             y="0"
             sodipodi:role="line"
             id="tspan4654">sens</tspan></text>
</g><path
         d="m 800,1220 4940,0"
         style="fill:none;stroke:#ff0000;stroke-width:10;stroke-linecap:butt;stroke-linejoin:miter;stroke-miterlimit:10;stroke-dasharray:none;stroke-opacity:1"
         id="path4656"
         inkscape:connector-curvature="0" /><path
         d="m 800,1220 4940,0"
         style="fill:none;stroke:#ff0000;stroke-width:10;stroke-linecap:butt;stroke-linejoin:miter;stroke-miterlimit:10;stroke-dasharray:none;stroke-opacity:1"
         id="path4658"
         inkscape:connector-curvature="0" /><path
         d="m 800,1220 4940,0"
         style="fill:none;stroke:#ff0000;stroke-width:10;stroke-linecap:butt;stroke-linejoin:miter;stroke-miterlimit:10;stroke-dasharray:none;stroke-opacity:1"
         id="path4660"
         inkscape:connector-curvature="0" /><path
         d="m 800,1220 4940,0"
         style="fill:none;stroke:#ff0000;stroke-width:10;stroke-linecap:butt;stroke-linejoin:miter;stroke-miterlimit:10;stroke-dasharray:none;stroke-opacity:1"
         id="path4662"
         inkscape:connector-curvature="0" /><path
         d="m 800,1220 4940,0"
         style="fill:none;stroke:#ff0000;stroke-width:10;stroke-linecap:butt;stroke-linejoin:miter;stroke-miterlimit:10;stroke-dasharray:none;stroke-opacity:1"
         id="path4664"
         inkscape:connector-curvature="0" /><path
         d="m 780,5860 240,0"
         style="fill:none;stroke:#0000ff;stroke-width:10;stroke-linecap:butt;stroke-linejoin:miter;stroke-miterlimit:10;stroke-dasharray:none;stroke-opacity:1"
         id="path4666"
         inkscape:connector-curvature="0" /><g
         id="g4668"
         transform="scale(10,10)"><text
           transform="matrix(1,0,0,-1,108,582)"
           style="font-variant:normal;font-weight:normal;font-size:10px;font-family:Helvetica;-inkscape-font-specification:Helvetica;writing-mode:lr-tb;fill:#000000;fill-opacity:1;fill-rule:nonzero;stroke:none"
           id="text4670"><tspan
             x="0 5.5599999 10.56 16.120001 21.120001"
             y="0"
             sodipodi:role="line"
             id="tspan4672">gcasc</tspan></text>
</g><path
         d="m 800,3690 30,80 20,50 30,40 20,30 30,30 20,20 30,20 20,20 30,20 20,20 30,20 20,10 30,20 20,10 30,20 20,10 30,10 20,20 30,10 20,10 30,10 20,10 30,20 20,10 20,10 30,10 20,10 30,10 20,10 30,10 20,10 30,10 20,10 30,0 20,10 30,10 20,10 30,10 20,10 30,10 20,10 30,0 20,10 30,10 20,10 30,10 20,0 30,10 20,10 20,10 30,10 20,0 30,10 20,10 30,10 20,0 30,10 20,10 30,10 20,0 30,10 20,10 30,0 20,10 30,10 20,0 30,10 20,10 30,0 20,10 30,10 20,0 30,10 20,10 20,0 30,10 20,10 30,0 20,10 30,10 20,0 30,10 20,0 30,10 20,10 30,0 20,10 30,0 20,10 30,10 20,0 30,10 20,0 30,10 20,0 30,10 20,0 30,10 20,10 20,0 30,10 20,0 30,10 20,0 30,10 20,0 30,10 20,0 30,10 20,0 30,10 20,0 30,10 20,0 30,10 20,0 30,0 20,10 30,0 20,10 30,0 20,10 30,0 20,10 20,0 30,0 20,10 30,0 20,10 30,0 20,0 30,10 20,0 30,0 20,10 30,0 20,10 30,0 20,0 30,10 20,0 30,0 20,10 30,0 20,0 30,10 20,0 30,0 20,10 20,0 30,0 20,10 30,0 20,0 30,10 20,0 30,0 20,0 30,10 20,0 30,0 20,0 30,10 20,0 30,0 20,10 30,0 20,0 30,0 20,10 30,0 20,0 30,0 20,0 20,10 30,0 20,0 30,0 20,10 30,0 20,0 30,0 20,0 30,10 20,0 30,0 20,0 30,0 20,10 30,0 20,0 30,0 20,0 30,0 20,10 30,0 20,0 30,0 20,0"
         style="fill:none;stroke:#0000ff;stroke-width:10;stroke-linecap:butt;stroke-linejoin:miter;stroke-miterlimit:10;stroke-dasharray:none;stroke-opacity:1"
         id="path4674"
         inkscape:connector-curvature="0" /><path
         d="m 800,3690 30,80 20,50 30,40 20,30 30,30 20,20 30,20 20,20 30,20 20,20 30,20 20,10 30,20 20,10 30,20 20,10 30,10 20,20 30,10 20,10 30,10 20,10 30,20 20,10 20,10 30,10 20,10 30,10 20,10 30,10 20,10 30,10 20,10 30,0 20,10 30,10 20,10 30,10 20,10 30,10 20,10 30,0 20,10 30,10 20,10 30,10 20,0 30,10 20,10 20,10 30,10 20,0 30,10 20,10 30,10 20,0 30,10 20,10 30,10 20,0 30,10 20,10 30,0 20,10 30,10 20,0 30,10 20,10 30,0 20,10 30,10 20,0 30,10 20,10 20,0 30,10 20,10 30,0 20,10 30,10 20,0 30,10 20,0 30,10 20,10 30,0 20,10 30,0 20,10 30,10 20,0 30,10 20,0 30,10 20,0 30,10 20,0 30,10 20,10 20,0 30,10 20,0 30,10 20,0 30,10 20,0 30,10 20,0 30,10 20,0 30,10 20,0 30,10 20,0 30,10 20,0 30,0 20,10 30,0 20,10 30,0 20,10 30,0 20,10 20,0 30,0 20,10 30,0 20,10 30,0 20,0 30,10 20,0 30,0 20,10 30,0 20,10 30,0 20,0 30,10 20,0 30,0 20,10 30,0 20,0 30,10 20,0 30,0 20,10 20,0 30,0 20,10 30,0 20,0 30,10 20,0 30,0 20,0 30,10 20,0 30,0 20,0 30,10 20,0 30,0 20,10 30,0 20,0 30,0 20,10 30,0 20,0 30,0 20,0 20,10 30,0 20,0 30,0 20,10 30,0 20,0 30,0 20,0 30,10 20,0 30,0 20,0 30,0 20,10 30,0 20,0 30,0 20,0 30,0 20,10 30,0 20,0 30,0 20,0"
         style="fill:none;stroke:#0000ff;stroke-width:10;stroke-linecap:butt;stroke-linejoin:miter;stroke-miterlimit:10;stroke-dasharray:none;stroke-opacity:1"
         id="path4676"
         inkscape:connector-curvature="0" /><path
         d="m 800,3690 30,80 20,50 30,40 20,30 30,30 20,20 30,20 20,20 30,20 20,20 30,20 20,10 30,20 20,10 30,20 20,10 30,10 20,20 30,10 20,10 30,10 20,10 30,20 20,10 20,10 30,10 20,10 30,10 20,10 30,10 20,10 30,10 20,10 30,0 20,10 30,10 20,10 30,10 20,10 30,10 20,10 30,0 20,10 30,10 20,10 30,10 20,0 30,10 20,10 20,10 30,10 20,0 30,10 20,10 30,10 20,0 30,10 20,10 30,10 20,0 30,10 20,10 30,0 20,10 30,10 20,0 30,10 20,10 30,0 20,10 30,10 20,0 30,10 20,10 20,0 30,10 20,10 30,0 20,10 30,10 20,0 30,10 20,0 30,10 20,10 30,0 20,10 30,0 20,10 30,10 20,0 30,10 20,0 30,10 20,0 30,10 20,0 30,10 20,10 20,0 30,10 20,0 30,10 20,0 30,10 20,0 30,10 20,0 30,10 20,0 30,10 20,0 30,10 20,0 30,10 20,0 30,0 20,10 30,0 20,10 30,0 20,10 30,0 20,10 20,0 30,0 20,10 30,0 20,10 30,0 20,0 30,10 20,0 30,0 20,10 30,0 20,10 30,0 20,0 30,10 20,0 30,0 20,10 30,0 20,0 30,10 20,0 30,0 20,10 20,0 30,0 20,10 30,0 20,0 30,10 20,0 30,0 20,0 30,10 20,0 30,0 20,0 30,10 20,0 30,0 20,10 30,0 20,0 30,0 20,10 30,0 20,0 30,0 20,0 20,10 30,0 20,0 30,0 20,10 30,0 20,0 30,0 20,0 30,10 20,0 30,0 20,0 30,0 20,10 30,0 20,0 30,0 20,0 30,0 20,10 30,0 20,0 30,0 20,0"
         style="fill:none;stroke:#0000ff;stroke-width:10;stroke-linecap:butt;stroke-linejoin:miter;stroke-miterlimit:10;stroke-dasharray:none;stroke-opacity:1"
         id="path4678"
         inkscape:connector-curvature="0" /><path
         d="m 800,3690 30,80 20,50 30,40 20,30 30,30 20,20 30,20 20,20 30,20 20,20 30,20 20,10 30,20 20,10 30,20 20,10 30,10 20,20 30,10 20,10 30,10 20,10 30,20 20,10 20,10 30,10 20,10 30,10 20,10 30,10 20,10 30,10 20,10 30,0 20,10 30,10 20,10 30,10 20,10 30,10 20,10 30,0 20,10 30,10 20,10 30,10 20,0 30,10 20,10 20,10 30,10 20,0 30,10 20,10 30,10 20,0 30,10 20,10 30,10 20,0 30,10 20,10 30,0 20,10 30,10 20,0 30,10 20,10 30,0 20,10 30,10 20,0 30,10 20,10 20,0 30,10 20,10 30,0 20,10 30,10 20,0 30,10 20,0 30,10 20,10 30,0 20,10 30,0 20,10 30,10 20,0 30,10 20,0 30,10 20,0 30,10 20,0 30,10 20,10 20,0 30,10 20,0 30,10 20,0 30,10 20,0 30,10 20,0 30,10 20,0 30,10 20,0 30,10 20,0 30,10 20,0 30,0 20,10 30,0 20,10 30,0 20,10 30,0 20,10 20,0 30,0 20,10 30,0 20,10 30,0 20,0 30,10 20,0 30,0 20,10 30,0 20,10 30,0 20,0 30,10 20,0 30,0 20,10 30,0 20,0 30,10 20,0 30,0 20,10 20,0 30,0 20,10 30,0 20,0 30,10 20,0 30,0 20,0 30,10 20,0 30,0 20,0 30,10 20,0 30,0 20,10 30,0 20,0 30,0 20,10 30,0 20,0 30,0 20,0 20,10 30,0 20,0 30,0 20,10 30,0 20,0 30,0 20,0 30,10 20,0 30,0 20,0 30,0 20,10 30,0 20,0 30,0 20,0 30,0 20,10 30,0 20,0 30,0 20,0"
         style="fill:none;stroke:#0000ff;stroke-width:10;stroke-linecap:butt;stroke-linejoin:miter;stroke-miterlimit:10;stroke-dasharray:none;stroke-opacity:1"
         id="path4680"
         inkscape:connector-curvature="0" /><path
         d="m 800,3690 30,80 20,50 30,40 20,30 30,30 20,20 30,20 20,20 30,20 20,20 30,20 20,10 30,20 20,10 30,20 20,10 30,10 20,20 30,10 20,10 30,10 20,10 30,20 20,10 20,10 30,10 20,10 30,10 20,10 30,10 20,10 30,10 20,10 30,0 20,10 30,10 20,10 30,10 20,10 30,10 20,10 30,0 20,10 30,10 20,10 30,10 20,0 30,10 20,10 20,10 30,10 20,0 30,10 20,10 30,10 20,0 30,10 20,10 30,10 20,0 30,10 20,10 30,0 20,10 30,10 20,0 30,10 20,10 30,0 20,10 30,10 20,0 30,10 20,10 20,0 30,10 20,10 30,0 20,10 30,10 20,0 30,10 20,0 30,10 20,10 30,0 20,10 30,0 20,10 30,10 20,0 30,10 20,0 30,10 20,0 30,10 20,0 30,10 20,10 20,0 30,10 20,0 30,10 20,0 30,10 20,0 30,10 20,0 30,10 20,0 30,10 20,0 30,10 20,0 30,10 20,0 30,0 20,10 30,0 20,10 30,0 20,10 30,0 20,10 20,0 30,0 20,10 30,0 20,10 30,0 20,0 30,10 20,0 30,0 20,10 30,0 20,10 30,0 20,0 30,10 20,0 30,0 20,10 30,0 20,0 30,10 20,0 30,0 20,10 20,0 30,0 20,10 30,0 20,0 30,10 20,0 30,0 20,0 30,10 20,0 30,0 20,0 30,10 20,0 30,0 20,10 30,0 20,0 30,0 20,10 30,0 20,0 30,0 20,0 20,10 30,0 20,0 30,0 20,10 30,0 20,0 30,0 20,0 30,10 20,0 30,0 20,0 30,0 20,10 30,0 20,0 30,0 20,0 30,0 20,10 30,0 20,0 30,0 20,0"
         style="fill:none;stroke:#0000ff;stroke-width:10;stroke-linecap:butt;stroke-linejoin:miter;stroke-miterlimit:10;stroke-dasharray:none;stroke-opacity:1"
         id="path4682"
         inkscape:connector-curvature="0" /><path
         d="m 2960,5720 240,0"
         style="fill:none;stroke:#ffa500;stroke-width:10;stroke-linecap:butt;stroke-linejoin:miter;stroke-miterlimit:10;stroke-dasharray:none;stroke-opacity:1"
         id="path4684"
         inkscape:connector-curvature="0" /><g
         id="g4686"
         transform="scale(10,10)"><text
           transform="matrix(1,0,0,-1,326,568)"
           style="font-variant:normal;font-weight:normal;font-size:10px;font-family:Helvetica;-inkscape-font-specification:Helvetica;writing-mode:lr-tb;fill:#000000;fill-opacity:1;fill-rule:nonzero;stroke:none"
           id="text4688"><tspan
             x="0 8.3299999 10.55"
             y="0"
             sodipodi:role="line"
             id="tspan4690">mir</tspan></text>
</g><path
         d="m 800,3670 30,-80 20,-50 30,-50 20,-30 30,-30 20,-30 30,-30 20,-20 30,-20 20,-20 30,-20 20,-20 30,-10 20,-20 30,-10 20,-20 30,-10 20,-20 30,-10 20,-10 30,-10 20,-20 30,-10 20,-10 20,-10 30,-10 20,-10 30,-10 20,-10 30,-10 20,-10 30,-10 20,0 30,-10 20,-10 30,-10 20,-10 30,0 20,-10 30,-10 20,-10 30,0 20,-10 30,-10 20,0 30,-10 20,-10 30,0 20,-10 20,-10 30,0 20,-10 30,0 20,-10 30,0 20,-10 30,-10 20,0 30,-10 20,0 30,-10 20,0 30,-10 20,0 30,0 20,-10 30,0 20,-10 30,0 20,-10 30,0 20,0 30,-10 20,0 20,-10 30,0 20,0 30,-10 20,0 30,0 20,-10 30,0 20,-10 30,0 20,0 30,-10 20,0 30,0 20,0 30,-10 20,0 30,0 20,-10 30,0 20,0 30,0 20,-10 30,0 20,0 20,-10 30,0 20,0 30,0 20,-10 30,0 20,0 30,0 20,0 30,-10 20,0 30,0 20,0 30,-10 20,0 30,0 20,0 30,0 20,0 30,-10 20,0 30,0 20,0 30,0 20,-10 20,0 30,0 20,0 30,0 20,0 30,-10 20,0 30,0 20,0 30,0 20,0 30,0 20,-10 30,0 20,0 30,0 20,0 30,0 20,0 30,-10 20,0 30,0 20,0 30,0 20,0 20,0 30,0 20,0 30,-10 20,0 30,0 20,0 30,0 20,0 30,0 20,0 30,0 20,0 30,-10 20,0 30,0 20,0 30,0 20,0 30,0 20,0 30,0 20,0 30,0 20,0 20,-10 30,0 20,0 30,0 20,0 30,0 20,0 30,0 20,0 30,0 20,0 30,0 20,0 30,0 20,0 30,-10 20,0 30,0 20,0 30,0 20,0 30,0 20,0 30,0 20,0"
         style="fill:none;stroke:#ffa500;stroke-width:10;stroke-linecap:butt;stroke-linejoin:miter;stroke-miterlimit:10;stroke-dasharray:none;stroke-opacity:1"
         id="path4692"
         inkscape:connector-curvature="0" /><path
         d="m 800,3670 30,-80 20,-50 30,-50 20,-30 30,-30 20,-30 30,-30 20,-20 30,-20 20,-20 30,-20 20,-20 30,-10 20,-20 30,-10 20,-20 30,-10 20,-20 30,-10 20,-10 30,-10 20,-20 30,-10 20,-10 20,-10 30,-10 20,-10 30,-10 20,-10 30,-10 20,-10 30,-10 20,0 30,-10 20,-10 30,-10 20,-10 30,0 20,-10 30,-10 20,-10 30,0 20,-10 30,-10 20,0 30,-10 20,-10 30,0 20,-10 20,-10 30,0 20,-10 30,0 20,-10 30,0 20,-10 30,-10 20,0 30,-10 20,0 30,-10 20,0 30,-10 20,0 30,0 20,-10 30,0 20,-10 30,0 20,-10 30,0 20,0 30,-10 20,0 20,-10 30,0 20,0 30,-10 20,0 30,0 20,-10 30,0 20,-10 30,0 20,0 30,-10 20,0 30,0 20,0 30,-10 20,0 30,0 20,-10 30,0 20,0 30,0 20,-10 30,0 20,0 20,-10 30,0 20,0 30,0 20,-10 30,0 20,0 30,0 20,0 30,-10 20,0 30,0 20,0 30,-10 20,0 30,0 20,0 30,0 20,0 30,-10 20,0 30,0 20,0 30,0 20,-10 20,0 30,0 20,0 30,0 20,0 30,-10 20,0 30,0 20,0 30,0 20,0 30,0 20,-10 30,0 20,0 30,0 20,0 30,0 20,0 30,-10 20,0 30,0 20,0 30,0 20,0 20,0 30,0 20,0 30,-10 20,0 30,0 20,0 30,0 20,0 30,0 20,0 30,0 20,0 30,-10 20,0 30,0 20,0 30,0 20,0 30,0 20,0 30,0 20,0 30,0 20,0 20,-10 30,0 20,0 30,0 20,0 30,0 20,0 30,0 20,0 30,0 20,0 30,0 20,0 30,0 20,0 30,-10 20,0 30,0 20,0 30,0 20,0 30,0 20,0 30,0 20,0"
         style="fill:none;stroke:#ffa500;stroke-width:10;stroke-linecap:butt;stroke-linejoin:miter;stroke-miterlimit:10;stroke-dasharray:none;stroke-opacity:1"
         id="path4694"
         inkscape:connector-curvature="0" /><path
         d="m 800,3670 30,-80 20,-50 30,-50 20,-30 30,-30 20,-30 30,-30 20,-20 30,-20 20,-20 30,-20 20,-20 30,-10 20,-20 30,-10 20,-20 30,-10 20,-20 30,-10 20,-10 30,-10 20,-20 30,-10 20,-10 20,-10 30,-10 20,-10 30,-10 20,-10 30,-10 20,-10 30,-10 20,0 30,-10 20,-10 30,-10 20,-10 30,0 20,-10 30,-10 20,-10 30,0 20,-10 30,-10 20,0 30,-10 20,-10 30,0 20,-10 20,-10 30,0 20,-10 30,0 20,-10 30,0 20,-10 30,-10 20,0 30,-10 20,0 30,-10 20,0 30,-10 20,0 30,0 20,-10 30,0 20,-10 30,0 20,-10 30,0 20,0 30,-10 20,0 20,-10 30,0 20,0 30,-10 20,0 30,0 20,-10 30,0 20,-10 30,0 20,0 30,-10 20,0 30,0 20,0 30,-10 20,0 30,0 20,-10 30,0 20,0 30,0 20,-10 30,0 20,0 20,-10 30,0 20,0 30,0 20,-10 30,0 20,0 30,0 20,0 30,-10 20,0 30,0 20,0 30,-10 20,0 30,0 20,0 30,0 20,0 30,-10 20,0 30,0 20,0 30,0 20,-10 20,0 30,0 20,0 30,0 20,0 30,-10 20,0 30,0 20,0 30,0 20,0 30,0 20,-10 30,0 20,0 30,0 20,0 30,0 20,0 30,-10 20,0 30,0 20,0 30,0 20,0 20,0 30,0 20,0 30,-10 20,0 30,0 20,0 30,0 20,0 30,0 20,0 30,0 20,0 30,-10 20,0 30,0 20,0 30,0 20,0 30,0 20,0 30,0 20,0 30,0 20,0 20,-10 30,0 20,0 30,0 20,0 30,0 20,0 30,0 20,0 30,0 20,0 30,0 20,0 30,0 20,0 30,-10 20,0 30,0 20,0 30,0 20,0 30,0 20,0 30,0 20,0"
         style="fill:none;stroke:#ffa500;stroke-width:10;stroke-linecap:butt;stroke-linejoin:miter;stroke-miterlimit:10;stroke-dasharray:none;stroke-opacity:1"
         id="path4696"
         inkscape:connector-curvature="0" /><path
         d="m 800,3670 30,-80 20,-50 30,-50 20,-30 30,-30 20,-30 30,-30 20,-20 30,-20 20,-20 30,-20 20,-20 30,-10 20,-20 30,-10 20,-20 30,-10 20,-20 30,-10 20,-10 30,-10 20,-20 30,-10 20,-10 20,-10 30,-10 20,-10 30,-10 20,-10 30,-10 20,-10 30,-10 20,0 30,-10 20,-10 30,-10 20,-10 30,0 20,-10 30,-10 20,-10 30,0 20,-10 30,-10 20,0 30,-10 20,-10 30,0 20,-10 20,-10 30,0 20,-10 30,0 20,-10 30,0 20,-10 30,-10 20,0 30,-10 20,0 30,-10 20,0 30,-10 20,0 30,0 20,-10 30,0 20,-10 30,0 20,-10 30,0 20,0 30,-10 20,0 20,-10 30,0 20,0 30,-10 20,0 30,0 20,-10 30,0 20,-10 30,0 20,0 30,-10 20,0 30,0 20,0 30,-10 20,0 30,0 20,-10 30,0 20,0 30,0 20,-10 30,0 20,0 20,-10 30,0 20,0 30,0 20,-10 30,0 20,0 30,0 20,0 30,-10 20,0 30,0 20,0 30,-10 20,0 30,0 20,0 30,0 20,0 30,-10 20,0 30,0 20,0 30,0 20,-10 20,0 30,0 20,0 30,0 20,0 30,-10 20,0 30,0 20,0 30,0 20,0 30,0 20,-10 30,0 20,0 30,0 20,0 30,0 20,0 30,-10 20,0 30,0 20,0 30,0 20,0 20,0 30,0 20,0 30,-10 20,0 30,0 20,0 30,0 20,0 30,0 20,0 30,0 20,0 30,-10 20,0 30,0 20,0 30,0 20,0 30,0 20,0 30,0 20,0 30,0 20,0 20,-10 30,0 20,0 30,0 20,0 30,0 20,0 30,0 20,0 30,0 20,0 30,0 20,0 30,0 20,0 30,-10 20,0 30,0 20,0 30,0 20,0 30,0 20,0 30,0 20,0"
         style="fill:none;stroke:#ffa500;stroke-width:10;stroke-linecap:butt;stroke-linejoin:miter;stroke-miterlimit:10;stroke-dasharray:none;stroke-opacity:1"
         id="path4698"
         inkscape:connector-curvature="0" /><path
         d="m 800,3670 30,-80 20,-50 30,-50 20,-30 30,-30 20,-30 30,-30 20,-20 30,-20 20,-20 30,-20 20,-20 30,-10 20,-20 30,-10 20,-20 30,-10 20,-20 30,-10 20,-10 30,-10 20,-20 30,-10 20,-10 20,-10 30,-10 20,-10 30,-10 20,-10 30,-10 20,-10 30,-10 20,0 30,-10 20,-10 30,-10 20,-10 30,0 20,-10 30,-10 20,-10 30,0 20,-10 30,-10 20,0 30,-10 20,-10 30,0 20,-10 20,-10 30,0 20,-10 30,0 20,-10 30,0 20,-10 30,-10 20,0 30,-10 20,0 30,-10 20,0 30,-10 20,0 30,0 20,-10 30,0 20,-10 30,0 20,-10 30,0 20,0 30,-10 20,0 20,-10 30,0 20,0 30,-10 20,0 30,0 20,-10 30,0 20,-10 30,0 20,0 30,-10 20,0 30,0 20,0 30,-10 20,0 30,0 20,-10 30,0 20,0 30,0 20,-10 30,0 20,0 20,-10 30,0 20,0 30,0 20,-10 30,0 20,0 30,0 20,0 30,-10 20,0 30,0 20,0 30,-10 20,0 30,0 20,0 30,0 20,0 30,-10 20,0 30,0 20,0 30,0 20,-10 20,0 30,0 20,0 30,0 20,0 30,-10 20,0 30,0 20,0 30,0 20,0 30,0 20,-10 30,0 20,0 30,0 20,0 30,0 20,0 30,-10 20,0 30,0 20,0 30,0 20,0 20,0 30,0 20,0 30,-10 20,0 30,0 20,0 30,0 20,0 30,0 20,0 30,0 20,0 30,-10 20,0 30,0 20,0 30,0 20,0 30,0 20,0 30,0 20,0 30,0 20,0 20,-10 30,0 20,0 30,0 20,0 30,0 20,0 30,0 20,0 30,0 20,0 30,0 20,0 30,0 20,0 30,-10 20,0 30,0 20,0 30,0 20,0 30,0 20,0 30,0 20,0"
         style="fill:none;stroke:#ffa500;stroke-width:10;stroke-linecap:butt;stroke-linejoin:miter;stroke-miterlimit:10;stroke-dasharray:none;stroke-opacity:1"
         id="path4700"
         inkscape:connector-curvature="0" /></g></g></svg>